<?xml version="1.0" encoding="UTF-8"?>
<svg data-bbox="1 72.757 398 291.243" viewBox="0 0 400 400" xmlns="http://www.w3.org/2000/svg" data-type="ugc">
    <g>
        <path d="M227.13 185.128c-.674.43-4.007 14.062-4.045 15.464-.085 3.14 1.148 5.42.655 9.652-1.504 12.926-12.167 54.84-16.969 67.027-4.46 11.319-16.256 13.173-17.527-.498 6.711-21.508 9.415-47.26 16.818-68.211 1.76-4.981 4.385-6.38 6.006-9.994.933-2.079 4.115-14.253 3.936-16.059-1.026-3.161-4.637-4.319-7.032-6.98-36.135-40.17 18.06-125.762 58.964-96.965 37.12 26.133 6.244 110.237-40.806 106.564M243.76 83.26c-39.48 5.798-54.841 85.124-17.022 91.501 52.669 8.881 71.49-99.5 17.023-91.501m-24.765 130.745c-2.683-.648-2.368 1.803-2.9 3.559-2.688 8.867-4.393 19.272-6.085 28.435 1.904-.43 1.973-2.507 2.494-3.996 2.991-8.548 3.967-19.151 6.491-27.998"/>
        <path d="M245.982 129.994c.903-3.602 4.16-6.662 8.013-5.989 1.54 1.295-6.442 7.093-6.863 8.703-.644 2.467 2.154 3.93 1.863 6.287-4.291 1.987-6.149-3.061-6.55-3.065-3.371-.035-12.965 8.25-17.294-.658-1.756-6.55 7.802-9.986 8.645-11.468 1.14-2.003-1.12-6.363 2.166-10.064 2.714-3.057 11.907-4.651 13.906-.037 1.208 4.91-8.489 9.205-8.626 10.779.494 1.267 2.816 6.841 4.74 5.512m-6.725-14.737c-3.19 3.19-.054 8.462 4.179 3.68 3.918-4.427-1.358-6.5-4.179-3.68m.74 18.733c1.102-1.628-3.034-6.722-4.497-7.973-2.293 2.42-7.27 5.601-3.845 9.033z"/>
        <path d="M262.005 141.995c3.559-16.318 6.649-34.559-8.903-45.656-.725-2.165.556-4.313 2.54-5.19 15.228 6.724 16.682 28.662 12.863 42.856-.934 3.471-1.87 8.665-6.5 7.99"/>
        <path fill="none" d="M399 295v69H1v-69z"/>
        <path d="M15.475 308.588q0 2.285-1.653 3.586c-1.653 1.3-2.62 1.3-4.558 1.3s-3.524-.3-4.758-.902v-2.648q1.171.55 2.49.867c1.32.317 1.697.316 2.455.316q1.665 0 2.455-.632c.79-.632.791-.989.791-1.7q0-.96-.726-1.629c-.726-.669-1.485-.972-3-1.582q-2.344-.948-3.305-2.168c-.961-1.22-.96-1.789-.96-2.93q0-2.144 1.523-3.374c1.523-1.23 2.378-1.23 4.09-1.23q2.46 0 4.898 1.077l-.89 2.286q-2.286-.961-4.079-.961-1.36 0-2.062.591c-.702.591-.704.916-.704 1.565q0 .668.282 1.142c.282.474.496.616.925.897s1.204.652 2.32 1.113q1.888.786 2.766 1.465c.878.68 1.016.965 1.29 1.535s.41 1.242.41 2.016" fill="#ff002b"/>
        <path d="m26.127 313.24-.55-1.804h-.094q-.938 1.184-1.887 1.61c-.949.427-1.445.429-2.437.429q-1.91 0-2.983-1.032c-1.073-1.032-1.072-1.66-1.072-2.918q0-2.003 1.488-3.023c1.488-1.02 2.504-1.05 4.535-1.113l2.239-.07v-.692q0-1.242-.58-1.857c-.58-.615-.987-.616-1.8-.616q-.995 0-1.91.293c-.914.293-1.195.426-1.757.692l-.89-1.97q1.054-.55 2.308-.837c1.254-.287 1.625-.287 2.367-.287q2.473 0 3.732 1.078c1.26 1.078 1.26 1.848 1.26 3.387v8.73zm-4.101-1.875q1.5 0 2.408-.838c.908-.838.908-1.341.908-2.35v-1.124l-1.664.07q-1.945.07-2.83.65c-.885.58-.885.979-.885 1.776q0 .867.516 1.342c.516.475.86.474 1.547.474" fill="#ff002b"/>
        <path d="M37.964 302.365H34.8v10.875h-2.766v-10.875h-2.133v-1.289l2.133-.844v-.843q0-2.297 1.078-3.405c1.078-1.108 1.817-1.107 3.293-1.107q1.453 0 2.86.48l-.727 2.086a6.4 6.4 0 0 0-1.945-.328q-.937 0-1.365.58c-.428.58-.428.967-.428 1.74v.844h3.164z" fill="#ff002b"/>
        <path d="M45.347 313.475q-3.023 0-4.728-1.764c-1.705-1.764-1.705-2.795-1.705-4.857q0-3.177 1.582-4.993c1.582-1.816 2.504-1.816 4.347-1.816q2.567 0 4.055 1.559c1.488 1.559 1.488 2.468 1.488 4.289v1.488H41.75q.058 1.887 1.019 2.9c.961 1.013 1.543 1.014 2.707 1.014q1.149 0 2.139-.217c.99-.217 1.369-.385 2.127-.72v2.238q-1.008.48-2.04.68c-1.031.2-1.472.199-2.355.199m-.504-11.344q-1.313 0-2.103.832c-.79.832-.842 1.363-.944 2.426h5.883q-.023-1.605-.773-2.432c-.75-.827-1.188-.826-2.063-.826" fill="#ff002b"/>
        <path d="M51.91 307.979v-2.344h6.024v2.344z" fill="#ff002b"/>
        <path d="M60.57 313.24v-17.133h2.802v14.73h7.253v2.403z" fill="#ff002b"/>
        <path d="M78.466 313.475q-3.024 0-4.729-1.764c-1.705-1.764-1.705-2.795-1.705-4.857q0-3.177 1.582-4.993c1.582-1.816 2.504-1.816 4.348-1.816q2.565 0 4.055 1.559c1.49 1.559 1.488 2.468 1.488 4.289v1.488h-8.637q.06 1.887 1.02 2.9c.96 1.013 1.543 1.014 2.707 1.014q1.148 0 2.138-.217c.99-.217 1.37-.385 2.127-.72v2.238q-1.007.48-2.039.68c-1.032.2-1.472.199-2.355.199m-.504-11.344q-1.312 0-2.104.832c-.792.832-.841 1.363-.943 2.426h5.883q-.024-1.605-.774-2.432c-.75-.827-1.187-.826-2.062-.826" fill="#ff002b"/>
        <path d="M91.814 313.475q-3.024 0-4.729-1.764c-1.705-1.764-1.705-2.795-1.705-4.857q0-3.177 1.582-4.993c1.582-1.816 2.504-1.816 4.348-1.816q2.567 0 4.055 1.559c1.488 1.559 1.488 2.468 1.488 4.289v1.488h-8.637q.06 1.887 1.02 2.9c.96 1.013 1.543 1.014 2.707 1.014q1.148 0 2.139-.217c.99-.217 1.369-.385 2.126-.72v2.238q-1.007.48-2.039.68c-1.032.2-1.472.199-2.355.199m-.504-11.344q-1.312 0-2.103.832c-.791.832-.842 1.363-.944 2.426h5.883q-.024-1.605-.773-2.432c-.75-.827-1.188-.826-2.063-.826" fill="#ff002b"/>
        <path d="M105.55 313.24v-17.133h2.8v17.133z" fill="#ff002b"/>
        <path d="M123.503 313.24h-2.766v-7.969q0-1.5-.603-2.238c-.603-.738-1.041-.738-1.916-.738q-1.746 0-2.555 1.031c-.809 1.031-.809 1.84-.809 3.457v6.457h-2.753v-12.96h2.156l.387 1.699h.14q.585-.926 1.664-1.43c1.08-.504 1.516-.504 2.39-.504q4.665 0 4.665 4.746z" fill="#ff002b"/>
        <path d="M135.562 309.549q0 1.898-1.383 2.912c-1.383 1.014-2.242 1.014-3.96 1.014q-2.59 0-4.16-.786v-2.378q2.284 1.054 4.253 1.054 2.543 0 2.543-1.535 0-.492-.281-.82c-.281-.328-.496-.446-.926-.68s-1.027-.5-1.793-.797q-2.238-.867-3.03-1.734c-.791-.867-.79-1.328-.79-2.25q0-1.664 1.341-2.584c1.341-.92 2.112-.92 3.65-.92q2.286 0 4.325.926l-.89 2.074q-2.099-.867-3.528-.867-2.18 0-2.18 1.242 0 .61.569 1.031c.569.421 1.205.668 2.478 1.16q1.606.621 2.332 1.137c.726.516.844.74 1.078 1.19s.352.986.352 1.61" fill="#ff002b"/>
        <path d="M144.633 313.475q-2.46 0-3.82-1.77h-.165q.165 1.641.165 1.992v5.309h-2.754v-18.727h2.226q.094.363.387 1.735h.14q1.29-1.97 3.868-1.97 2.426 0 3.779 1.759c1.353 1.759 1.354 2.816 1.354 4.933s-.46 3.77-1.377 4.957-2.186 1.782-3.803 1.782m-.668-11.18q-1.641 0-2.397.96c-.756.96-.755 1.665-.755 3.071v.41q0 2.367.75 3.428c.75 1.061 1.316 1.06 2.449 1.06q1.43 0 2.203-1.171c.773-1.171.773-1.895.773-3.34q0-2.18-.767-3.299c-.767-1.119-1.264-1.12-2.256-1.12" fill="#ff002b"/>
        <path d="M158.191 313.475q-3.023 0-4.728-1.764c-1.705-1.764-1.705-2.795-1.705-4.857q0-3.177 1.582-4.993c1.582-1.816 2.504-1.816 4.347-1.816q2.567 0 4.055 1.559c1.488 1.559 1.488 2.468 1.488 4.289v1.488h-8.636q.058 1.887 1.02 2.9c.961 1.013 1.542 1.014 2.706 1.014q1.149 0 2.139-.217c.99-.217 1.37-.385 2.127-.72v2.238q-1.008.48-2.04.68c-1.031.2-1.472.199-2.355.199m-.504-11.344q-1.312 0-2.103.832c-.791.832-.842 1.363-.943 2.426h5.882q-.023-1.605-.773-2.432c-.75-.827-1.188-.826-2.063-.826" fill="#ff002b"/>
        <path d="M171.106 313.475q-2.941 0-4.47-1.717c-1.53-1.717-1.53-2.787-1.53-4.928q0-3.27 1.6-5.027c1.6-1.757 2.607-1.758 4.623-1.758q2.05 0 3.691.762l-.832 2.214q-1.746-.68-2.883-.68-3.363.001-3.363 4.466 0 2.18.838 3.275c.838 1.095 1.377 1.096 2.455 1.096a7.04 7.04 0 0 0 3.48-.914v2.402q-.738.434-1.576.621c-.838.187-1.236.188-2.033.188" fill="#ff002b"/>
        <path d="M182.11 311.248q1.008 0 2.016-.316v2.074q-.457.2-1.178.334a6.5 6.5 0 0 1-1.494.135q-3.915 0-3.914-4.125v-6.985h-1.77v-1.219l1.899-1.007.937-2.743h1.7v2.883h3.691v2.086h-3.691v6.938q0 .996.498 1.47c.498.474.767.475 1.306.475" fill="#ff002b"/>
        <path d="M186.072 296.846q0-.738.404-1.137c.404-.399.654-.398 1.154-.398q.727 0 1.131.398c.404.398.405.645.405 1.137q0 .703-.405 1.107c-.405.404-.646.404-1.13.404q-.75 0-1.155-.404c-.405-.404-.404-.639-.404-1.107m2.918 16.394h-2.754v-12.96h2.754z" fill="#ff002b"/>
        <path d="M203.943 306.736q0 3.177-1.629 4.957c-1.629 1.78-2.597 1.782-4.535 1.782q-1.816 0-3.21-.82c-1.395-.82-1.645-1.333-2.145-2.356s-.75-2.211-.75-3.563q0-3.152 1.617-4.922c1.617-1.77 2.598-1.77 4.559-1.77q2.812 0 4.453 1.811c1.64 1.811 1.64 2.834 1.64 4.881m-9.433 0q0 4.49 3.316 4.489 3.281 0 3.281-4.489 0-4.44-3.304-4.441-1.735 0-2.514 1.148c-.779 1.148-.78 1.864-.78 3.293" fill="#ff002b"/>
        <path d="M218.03 313.24h-2.766v-7.969q0-1.5-.603-2.238c-.603-.738-1.041-.738-1.916-.738q-1.746 0-2.555 1.031c-.81 1.031-.809 1.84-.809 3.457v6.457h-2.754v-12.96h2.157l.386 1.699h.141q.585-.926 1.664-1.43c1.08-.504 1.516-.504 2.39-.504q4.665 0 4.665 4.746z" fill="#ff002b"/>
        <path d="M230.089 309.549q0 1.898-1.383 2.912c-1.383 1.014-2.242 1.014-3.96 1.014q-2.59 0-4.161-.786v-2.378q2.285 1.054 4.254 1.054 2.543 0 2.543-1.535 0-.492-.281-.82c-.281-.328-.497-.446-.926-.68s-1.028-.5-1.793-.797q-2.238-.867-3.03-1.734c-.791-.867-.79-1.328-.79-2.25q0-1.664 1.341-2.584c1.341-.92 2.112-.92 3.65-.92q2.286 0 4.325.926l-.89 2.074q-2.1-.867-3.528-.867-2.18 0-2.18 1.242 0 .61.569 1.031c.569.421 1.205.668 2.478 1.16q1.606.621 2.332 1.137c.726.516.844.74 1.078 1.19s.352.986.352 1.61" fill="#ff002b"/>
        <path d="M237.496 308.705q0-1.535.75-2.678c.75-1.143 1.402-1.517 2.707-2.267q-1.113-1.301-1.517-2.197c-.404-.896-.405-1.217-.405-1.858q0-1.781 1.272-2.812c1.272-1.031 1.986-1.032 3.416-1.032q2.074 0 3.258 1.002c1.184 1.002 1.183 1.569 1.183 2.701q0 1.337-.79 2.426c-.79 1.09-1.41 1.453-2.643 2.18l4.054 3.914q.95-1.254 1.582-3.68h2.836q-.82 3.329-2.625 5.426l3.528 3.41h-3.551l-1.746-1.699q-1.195.96-2.55 1.447c-1.354.487-1.9.487-2.993.487q-2.696 0-4.23-1.278c-1.535-1.278-1.536-2.015-1.536-3.492m5.906 2.402q2.145 0 3.668-1.253l-4.488-4.418q-1.242.796-1.71 1.494c-.469.698-.47.994-.47 1.588q0 1.147.815 1.869c.815.722 1.271.72 2.185.72m-1.746-11.308q0 .738.393 1.394c.393.656.627.903 1.096 1.395q1.323-.75 1.857-1.4c.534-.65.533-.92.533-1.46q0-.761-.51-1.218c-.51-.457-.79-.457-1.353-.457q-.926 0-1.47.474c-.545.474-.546.74-.546 1.272" fill="#ff002b"/>
        <path d="M268.962 298.264q-2.414 0-3.797 1.71c-1.383 1.71-1.383 2.715-1.383 4.723q0 3.153 1.33 4.77c1.33 1.617 2.17 1.617 3.85 1.617q1.09 0 2.11-.217c1.02-.217 1.386-.33 2.12-.556v2.402q-2.015.762-4.57.762-3.762 0-5.777-2.28c-2.015-2.28-2.016-3.693-2.016-6.521q0-2.672.979-4.676c.979-2.004 1.595-2.36 2.83-3.07s2.683-1.067 4.347-1.067q2.626 0 4.852 1.102l-1.008 2.332q-.867-.411-1.834-.72c-.967-.31-1.322-.311-2.033-.311" fill="#ff002b"/>
        <path d="M287.607 306.736q0 3.177-1.629 4.957c-1.629 1.78-2.598 1.782-4.535 1.782q-1.816 0-3.211-.82c-1.395-.82-1.645-1.333-2.145-2.356s-.75-2.211-.75-3.563q0-3.152 1.618-4.922c1.618-1.77 2.597-1.77 4.558-1.77q2.813 0 4.453 1.811c1.64 1.811 1.64 2.834 1.64 4.881m-9.434 0q0 4.49 3.317 4.489 3.28 0 3.281-4.489 0-4.44-3.305-4.441-1.734 0-2.513 1.148c-.78 1.148-.78 1.864-.78 3.293" fill="#ff002b"/>
        <path d="M301.693 313.24h-2.765v-7.969q0-1.5-.604-2.238c-.604-.738-1.04-.738-1.916-.738q-1.746 0-2.554 1.031c-.808 1.031-.81 1.84-.81 3.457v6.457h-2.753v-12.96h2.156l.387 1.699h.14q.587-.926 1.665-1.43c1.078-.504 1.515-.504 2.39-.504q4.664 0 4.664 4.746z" fill="#ff002b"/>
        <path d="M313.752 309.549q0 1.898-1.382 2.912c-1.382 1.014-2.243 1.014-3.961 1.014q-2.59 0-4.16-.786v-2.378q2.284 1.054 4.253 1.054 2.543 0 2.543-1.535 0-.492-.28-.82c-.28-.328-.497-.446-.927-.68s-1.027-.5-1.793-.797q-2.238-.867-3.029-1.734c-.79-.867-.79-1.328-.79-2.25q0-1.664 1.34-2.584c1.34-.92 2.112-.92 3.651-.92q2.286 0 4.325.926l-.891 2.074q-2.098-.867-3.527-.867-2.18 0-2.18 1.242 0 .61.568 1.031c.568.421 1.205.668 2.479 1.16q1.605.621 2.332 1.137c.727.516.844.74 1.078 1.19s.351.986.351 1.61" fill="#ff002b"/>
        <path d="m325.39 313.24-.387-1.699h-.14q-.575.902-1.635 1.418c-1.06.516-1.514.516-2.42.516q-2.356 0-3.516-1.172c-1.16-1.172-1.16-1.965-1.16-3.551v-8.473h2.777v7.992q0 1.49.61 2.233c.61.743 1.043.744 1.91.744q1.734 0 2.549-1.037c.815-1.037.814-1.85.814-3.475v-6.457h2.766v12.961z" fill="#ff002b"/>
        <path d="M333.757 313.24h-2.754v-18.234h2.754z" fill="#ff002b"/>
        <path d="M342.043 311.248q1.008 0 2.016-.316v2.074q-.458.2-1.178.334c-.72.134-.979.135-1.494.135q-3.915 0-3.914-4.125v-6.985h-1.77v-1.219l1.899-1.007.937-2.743h1.7v2.883h3.69v2.086h-3.69v6.938q0 .996.497 1.47c.497.474.768.475 1.307.475" fill="#ff002b"/>
        <path d="m354.278 313.24-.55-1.804h-.095q-.938 1.184-1.886 1.61c-.948.427-1.446.429-2.438.429q-1.91 0-2.982-1.032c-1.072-1.032-1.073-1.66-1.073-2.918q0-2.003 1.489-3.023c1.489-1.02 2.504-1.05 4.535-1.113l2.238-.07v-.692q0-1.242-.58-1.857c-.58-.615-.986-.616-1.799-.616q-.995 0-1.91.293c-.915.293-1.195.426-1.758.692l-.89-1.97q1.054-.55 2.308-.837c1.254-.287 1.625-.287 2.367-.287q2.473 0 3.733 1.078c1.26 1.078 1.26 1.848 1.26 3.387v8.73zm-4.102-1.875q1.5 0 2.408-.838c.908-.838.909-1.341.909-2.35v-1.124l-1.664.07q-1.945.07-2.83.65c-.885.58-.885.979-.885 1.776q0 .867.515 1.342c.515.475.86.474 1.547.474" fill="#ff002b"/>
        <path d="M371.013 313.24h-2.766v-7.969q0-1.5-.603-2.238c-.603-.738-1.041-.738-1.916-.738q-1.747 0-2.555 1.031c-.808 1.031-.809 1.84-.809 3.457v6.457h-2.754v-12.96h2.157l.386 1.699h.14q.587-.926 1.665-1.43c1.078-.504 1.516-.504 2.39-.504q4.665 0 4.665 4.746z" fill="#ff002b"/>
        <path d="M379.591 313.475q-2.94 0-4.47-1.717c-1.53-1.717-1.53-2.787-1.53-4.928q0-3.27 1.6-5.027c1.6-1.757 2.607-1.758 4.623-1.758q2.051 0 3.691.762l-.832 2.214q-1.746-.68-2.882-.68-3.364.001-3.364 4.466 0 2.18.838 3.275c.838 1.095 1.377 1.096 2.455 1.096a7.04 7.04 0 0 0 3.48-.914v2.402q-.738.434-1.575.621c-.837.187-1.237.188-2.034.188" fill="#ff002b"/>
        <path d="M383.799 300.28h3l2.637 7.347q.597 1.57.796 2.953h.094q.106-.645.387-1.564c.28-.92 1.18-3.526 2.976-8.737h2.977l-5.543 14.684q-1.512 4.043-5.039 4.043a8 8 0 0 1-1.781-.2v-2.179q.62.14 1.418.14 1.992 0 2.8-2.308l.481-1.219z" fill="#ff002b"/>
        <path d="M108.473 243.797q0 16.976-12.275 26.64-12.275 9.663-33.865 9.663t-35.344-6.704v-19.674q8.705 4.092 18.5 6.442 9.792 2.35 18.237 2.35 12.36 0 18.238-4.7c5.878-4.7 5.877-7.342 5.877-12.624q0-7.138-5.398-12.1-5.399-4.963-22.286-11.753-17.413-7.05-24.55-16.105-7.139-9.054-7.138-21.764 0-15.93 11.317-25.072t30.382-9.141q18.281 0 36.39 8.01L99.94 174.24q-16.975-7.138-30.295-7.138-10.1 0-15.322 4.396-5.223 4.397-5.223 11.622 0 4.962 2.09 8.487 2.088 3.526 6.876 6.66 4.787 3.135 17.238 8.27 14.015 5.835 20.545 10.883 6.529 5.05 9.576 11.404 3.046 6.356 3.047 14.973" fill="#fff601"/>
        <path d="M118.07 203.783V76.507h20.806v109.43h53.888v17.846z" fill="#ff002b"/>
        <path d="M325.612 163.102q-17.934 0-28.206 12.71t-10.272 35.083q0 23.419 9.88 35.431 9.88 12.014 28.598 12.014 8.097.001 15.67-1.61t15.757-4.135v17.845q-14.974 5.66-33.951 5.66-27.946 0-42.92-16.933-14.972-16.93-14.972-48.446 0-19.849 7.269-34.735 7.268-14.886 21.024-22.809 13.755-7.921 32.297-7.922 19.5.001 36.041 8.183l-7.486 17.324q-6.443-3.045-13.624-5.354-7.183-2.306-15.105-2.306" fill="#fff601"/>
    </g>
</svg>
